HIERARCHY
ROOT Hips
{
	OFFSET 0.000000 100.481300 0.000000
	CHANNELS 6 Xposition Yposition Zposition Xrotation Yrotation Zrotation
	JOINT Spine
	{
		OFFSET -0.279200 12.230698 -2.892100
		CHANNELS 3 Xrotation Yrotation Zrotation
		JOINT Spine1
		{
			OFFSET -0.325700 14.269203 -3.374200
			CHANNELS 3 Xrotation Yrotation Zrotation
			JOINT Spine2
			{
				OFFSET -0.372300 16.307602 -0.352600
				CHANNELS 3 Xrotation Yrotation Zrotation
				JOINT Neck
				{
					OFFSET -0.418800 17.814194 8.416900
					CHANNELS 3 Xrotation Yrotation Zrotation
					JOINT Head
					{
						OFFSET 0.000000 7.031097 3.806800
						CHANNELS 3 Xrotation Yrotation Zrotation
						JOINT HeadTop_End
						{
							OFFSET 0.000000 24.646606 12.978600
							CHANNELS 3 Xrotation Yrotation Zrotation
							End Site
							{
								OFFSET 0.000000 27.854965 0.000000
							}
						}
					}
				}
				JOINT LeftShoulder
				{
					OFFSET 16.952999 14.495407 -7.737500
					CHANNELS 3 Xrotation Yrotation Zrotation
					JOINT LeftArm
					{
						OFFSET 9.308998 -2.777710 0.208600
						CHANNELS 3 Xrotation Yrotation Zrotation
						JOINT LeftForeArm
						{
							OFFSET 29.972298 0.000000 0.000000
							CHANNELS 3 Xrotation Yrotation Zrotation
							JOINT LeftHand
							{
								OFFSET 26.026505 0.000000 0.000000
								CHANNELS 3 Xrotation Yrotation Zrotation
								JOINT LeftHandThumb1
								{
									OFFSET 12.240501 -7.147949 9.207150
									CHANNELS 3 Xrotation Yrotation Zrotation
									JOINT LeftHandThumb2
									{
										OFFSET 4.138618 -2.389435 2.389433
										CHANNELS 3 Xrotation Yrotation Zrotation
										JOINT LeftHandThumb3
										{
											OFFSET 2.726913 -1.574387 1.574386
											CHANNELS 3 Xrotation Yrotation Zrotation
											JOINT LeftHandThumb4
											{
												OFFSET 3.941010 -2.275345 2.275342
												CHANNELS 3 Xrotation Yrotation Zrotation
												End Site
												{
													OFFSET -0.005798 5.087799 0.009903
												}
											}
										}
									}
								}
								JOINT LeftHandIndex1
								{
									OFFSET 24.424698 -1.985611 5.953459
									CHANNELS 3 Xrotation Yrotation Zrotation
									JOINT LeftHandIndex2
									{
										OFFSET 6.426697 0.000000 0.000000
										CHANNELS 3 Xrotation Yrotation Zrotation
										JOINT LeftHandIndex3
										{
											OFFSET 5.337898 0.000000 0.000000
											CHANNELS 3 Xrotation Yrotation Zrotation
											JOINT LeftHandIndex4
											{
												OFFSET 4.409401 0.000000 0.000000
												CHANNELS 3 Xrotation Yrotation Zrotation
												End Site
												{
													OFFSET 0.000000 4.409363 0.014373
												}
											}
										}
									}
								}
								JOINT LeftHandMiddle1
								{
									OFFSET 23.810104 0.000000 0.000000
									CHANNELS 3 Xrotation Yrotation Zrotation
									JOINT LeftHandMiddle2
									{
										OFFSET 7.176498 0.000000 0.000000
										CHANNELS 3 Xrotation Yrotation Zrotation
										JOINT LeftHandMiddle3
										{
											OFFSET 6.774902 0.000000 0.000000
											CHANNELS 3 Xrotation Yrotation Zrotation
											JOINT LeftHandMiddle4
											{
												OFFSET 5.403328 0.000000 0.000000
												CHANNELS 3 Xrotation Yrotation Zrotation
												End Site
												{
													OFFSET -0.027702 5.403244 0.017414
												}
											}
										}
									}
								}
								JOINT LeftHandRing1
								{
									OFFSET 22.908401 -0.839279 -6.020567
									CHANNELS 3 Xrotation Yrotation Zrotation
									JOINT LeftHandRing2
									{
										OFFSET 6.337502 0.000000 0.000000
										CHANNELS 3 Xrotation Yrotation Zrotation
										JOINT LeftHandRing3
										{
											OFFSET 5.779297 0.000000 0.000000
											CHANNELS 3 Xrotation Yrotation Zrotation
											JOINT LeftHandRing4
											{
												OFFSET 4.965698 0.000000 0.000000
												CHANNELS 3 Xrotation Yrotation Zrotation
												End Site
												{
													OFFSET 0.000000 4.965668 0.016186
												}
											}
										}
									}
								}
								JOINT LeftHandPinky1
								{
									OFFSET 20.037003 -1.530319 -10.950146
									CHANNELS 3 Xrotation Yrotation Zrotation
									JOINT LeftHandPinky2
									{
										OFFSET 5.254700 0.000000 0.000000
										CHANNELS 3 Xrotation Yrotation Zrotation
										JOINT LeftHandPinky3
										{
											OFFSET 4.810204 0.000000 0.000000
											CHANNELS 3 Xrotation Yrotation Zrotation
											JOINT LeftHandPinky4
											{
												OFFSET 3.647202 0.000000 0.000000
												CHANNELS 3 Xrotation Yrotation Zrotation
												End Site
												{
													OFFSET 0.000000 3.647186 0.011889
												}
											}
										}
									}
								}
							}
						}
					}
				}
				JOINT RightShoulder
				{
					OFFSET -15.141001 14.495407 -7.737500
					CHANNELS 3 Xrotation Yrotation Zrotation
					JOINT RightArm
					{
						OFFSET -9.308998 -2.777710 0.208500
						CHANNELS 3 Xrotation Yrotation Zrotation
						JOINT RightForeArm
						{
							OFFSET -29.972300 0.000000 0.000000
							CHANNELS 3 Xrotation Yrotation Zrotation
							JOINT RightHand
							{
								OFFSET -26.026505 0.000000 0.000000
								CHANNELS 3 Xrotation Yrotation Zrotation
								JOINT RightHandThumb1
								{
									OFFSET -12.240601 -7.148026 9.207092
									CHANNELS 3 Xrotation Yrotation Zrotation
									JOINT RightHandThumb2
									{
										OFFSET -4.138618 -2.389435 2.389433
										CHANNELS 3 Xrotation Yrotation Zrotation
										JOINT RightHandThumb3
										{
											OFFSET -2.726974 -1.574417 1.574421
											CHANNELS 3 Xrotation Yrotation Zrotation
											JOINT RightHandThumb4
											{
												OFFSET -3.941010 -2.275345 2.275343
												CHANNELS 3 Xrotation Yrotation Zrotation
												End Site
												{
													OFFSET 0.005814 5.087799 0.009927
												}
											}
										}
									}
								}
								JOINT RightHandIndex1
								{
									OFFSET -24.424698 -1.985657 5.953444
									CHANNELS 3 Xrotation Yrotation Zrotation
									JOINT RightHandIndex2
									{
										OFFSET -6.426697 0.000000 0.000000
										CHANNELS 3 Xrotation Yrotation Zrotation
										JOINT RightHandIndex3
										{
											OFFSET -5.337898 0.000000 0.000000
											CHANNELS 3 Xrotation Yrotation Zrotation
											JOINT RightHandIndex4
											{
												OFFSET -4.409401 0.000000 0.000000
												CHANNELS 3 Xrotation Yrotation Zrotation
												End Site
												{
													OFFSET 0.000000 4.409363 0.014408
												}
											}
										}
									}
								}
								JOINT RightHandMiddle1
								{
									OFFSET -23.810097 0.000000 0.000000
									CHANNELS 3 Xrotation Yrotation Zrotation
									JOINT RightHandMiddle2
									{
										OFFSET -7.176498 0.000000 0.000000
										CHANNELS 3 Xrotation Yrotation Zrotation
										JOINT RightHandMiddle3
										{
											OFFSET -6.774902 0.000000 0.000000
											CHANNELS 3 Xrotation Yrotation Zrotation
											JOINT RightHandMiddle4
											{
												OFFSET -5.403328 0.000000 0.000000
												CHANNELS 3 Xrotation Yrotation Zrotation
												End Site
												{
													OFFSET 0.027702 5.403244 0.017457
												}
											}
										}
									}
								}
								JOINT RightHandRing1
								{
									OFFSET -22.908302 -0.839325 -6.020576
									CHANNELS 3 Xrotation Yrotation Zrotation
									JOINT RightHandRing2
									{
										OFFSET -6.337502 0.000000 0.000000
										CHANNELS 3 Xrotation Yrotation Zrotation
										JOINT RightHandRing3
										{
											OFFSET -5.779297 0.000000 0.000000
											CHANNELS 3 Xrotation Yrotation Zrotation
											JOINT RightHandRing4
											{
												OFFSET -4.965698 0.000000 0.000000
												CHANNELS 3 Xrotation Yrotation Zrotation
												End Site
												{
													OFFSET 0.000000 4.965668 0.016226
												}
											}
										}
									}
								}
								JOINT RightHandPinky1
								{
									OFFSET -20.037003 -1.530334 -10.950259
									CHANNELS 3 Xrotation Yrotation Zrotation
									JOINT RightHandPinky2
									{
										OFFSET -5.254700 0.000000 0.000000
										CHANNELS 3 Xrotation Yrotation Zrotation
										JOINT RightHandPinky3
										{
											OFFSET -4.810204 0.000000 0.000000
											CHANNELS 3 Xrotation Yrotation Zrotation
											JOINT RightHandPinky4
											{
												OFFSET -3.647202 0.000000 0.000000
												CHANNELS 3 Xrotation Yrotation Zrotation
												End Site
												{
													OFFSET 0.000000 3.647186 0.011917
												}
											}
										}
									}
								}
							}
						}
					}
				}
			}
		}
	}
	JOINT LeftUpLeg
	{
		OFFSET 15.427100 -6.655098 0.678600
		CHANNELS 3 Xrotation Yrotation Zrotation
		JOINT LeftLeg
		{
			OFFSET 4.081073 -39.591068 13.024000
			CHANNELS 3 Xrotation Yrotation Zrotation
			JOINT LeftFoot
			{
				OFFSET -4.081074 -37.707932 -15.979700
				CHANNELS 3 Xrotation Yrotation Zrotation
				JOINT LeftToeBase
				{
					OFFSET 5.346399 -15.068900 20.645000
					CHANNELS 3 Xrotation Yrotation Zrotation
					JOINT LeftToe_End
					{
						OFFSET 2.754700 0.931300 11.300900
						CHANNELS 3 Xrotation Yrotation Zrotation
						End Site
						{
							OFFSET 0.000000 11.669021 0.000000
						}
					}
				}
			}
		}
	}
	JOINT RightUpLeg
	{
		OFFSET -15.569500 -6.655098 0.678600
		CHANNELS 3 Xrotation Yrotation Zrotation
		JOINT RightLeg
		{
			OFFSET -4.081825 -39.591045 13.023800
			CHANNELS 3 Xrotation Yrotation Zrotation
			JOINT RightFoot
			{
				OFFSET 4.081824 -37.707954 -15.979600
				CHANNELS 3 Xrotation Yrotation Zrotation
				JOINT RightToeBase
				{
					OFFSET -5.346400 -15.068900 20.645000
					CHANNELS 3 Xrotation Yrotation Zrotation
					JOINT RightToe_End
					{
						OFFSET -2.754700 0.931300 11.300900
						CHANNELS 3 Xrotation Yrotation Zrotation
						End Site
						{
							OFFSET 0.000000 11.669021 0.000000
						}
					}
				}
			}
		}
	}
}
MOTION
Frames: 5
Frame Time: 0.033333
0.804006 69.823112 3.094902 -8.056013 -36.864542 -2.361208 19.114991 0.787918 -3.769321 7.260233 -0.249700 -2.771884 8.858179 -0.805201 -3.760002 -4.363418 6.471756 3.501012 -4.523545 26.456651 -13.069978 0.000000 0.000000 0.000000 2.873776 -5.472392 -5.819509 -20.589674 9.718453 -43.136343 0.000010 -48.308166 0.000003 32.113009 8.181029 -16.809838 -0.654298 6.663139 -0.241885 16.841957 36.287863 -8.242881 5.860847 23.175418 2.246237 -0.000001 -0.000001 -0.000001 -0.434632 0.697198 -26.067111 0.280520 1.949006 -16.378553 0.019708 0.521524 -4.325751 0.000002 0.000000 -0.000001 3.851728 7.997435 -32.559758 0.297535 2.005931 -16.871382 0.093487 1.133101 -9.433126 0.000001 -0.000001 0.000003 1.696788 4.574201 -36.081250 0.725077 3.080525 -26.484002 0.307006 2.036936 -17.140390 0.000001 0.000000 0.000001 3.277792 6.459916 -39.199805 0.664270 -1.120029 -25.649380 1.225145 3.925575 -34.654068 -0.000000 0.000000 -0.000001 4.347674 5.488444 7.493307 2.495296 -2.457141 54.669346 0.000065 77.411329 -0.000071 28.360554 4.699582 -30.953225 -0.975061 -6.597110 -0.222800 17.973354 -36.828400 9.082083 5.079557 -21.473585 -2.060335 0.000000 0.000003 -0.000001 -0.427824 -0.726647 26.066360 0.283192 -1.967906 16.376347 0.019882 -0.526579 4.325137 -0.000001 0.000002 -0.000001 3.862774 -8.035151 32.567920 0.299795 -2.023522 16.853135 0.094395 -1.144094 9.431794 0.000000 -0.000000 -0.000001 1.709474 -4.613690 36.076902 0.732024 -3.110428 26.480751 0.309946 -2.056682 17.138118 0.000001 -0.000000 0.000000 0.713552 -3.366654 39.487147 0.663203 -2.968446 25.182849 1.236901 -3.963677 34.650253 0.000003 -0.000001 -0.000004 -55.981996 4.023536 -0.690681 80.404843 7.101230 0.644058 -15.872933 -1.724432 0.951454 -0.000007 0.000001 0.000000 -0.000000 0.000001 0.000000 -10.025867 -9.751227 -14.118213 82.201135 -5.976547 1.853666 -45.986967 -28.934071 -0.339557 -5.928648 -0.000012 0.000013 0.000000 0.000000 -0.000000 
0.835067 69.439003 10.174485 -8.326174 -36.976657 -2.415937 19.053839 0.759361 -3.613305 7.248493 -0.269113 -2.739596 8.846830 -0.825374 -3.727530 -4.127862 6.556787 3.318645 -4.318925 26.703955 -13.298002 -0.000003 0.000000 0.000000 2.845022 -5.376285 -6.267038 -20.845874 9.196814 -42.367045 -0.000015 -48.307923 -0.000020 32.915443 9.566875 -16.148058 -0.635639 6.693287 -0.209191 16.825870 36.260405 -8.229640 5.883557 23.221180 2.233353 0.000001 0.000001 0.000000 -0.424028 0.724201 -26.116543 0.283632 1.959567 -16.470016 0.019706 0.521524 -4.325748 -0.000001 0.000000 -0.000003 3.853278 8.010403 -32.494266 0.297650 2.006380 -16.875273 0.091682 1.122066 -9.340248 0.000002 0.000001 -0.000001 1.724872 4.614813 -35.968230 0.724759 3.079902 -26.478091 0.307003 2.036936 -17.140390 -0.000000 0.000001 -0.000003 3.283900 6.468676 -39.181602 0.663083 -1.122499 -25.626810 1.226853 3.928043 -34.679077 -0.000001 -0.000000 0.000003 4.453933 5.740596 7.603467 2.021386 -1.984516 53.064365 0.000197 76.862810 -0.000212 27.378870 3.772198 -30.208923 -1.116866 -6.432621 -0.169571 17.961984 -36.809047 9.075729 5.102383 -21.530257 -2.058085 0.000000 0.000001 0.000000 -0.469335 -0.601484 25.702352 0.282812 -1.966613 16.365205 0.019014 -0.514992 4.229786 -0.000001 -0.000000 0.000000 3.829060 -8.006548 32.423260 0.299025 -2.020977 16.831307 0.097235 -1.145983 9.451022 -0.000000 0.000000 -0.000001 1.726427 -4.638854 35.973066 0.730959 -3.108293 26.461191 0.306131 -2.054836 17.114241 -0.000001 -0.000000 0.000000 0.710870 -3.363356 39.486109 0.662259 -2.966452 25.164671 1.236903 -3.963679 34.650257 0.000004 -0.000000 -0.000001 -56.268007 4.069851 -0.719939 80.756591 7.147334 0.533841 -15.918278 -1.754860 1.011748 -0.000007 0.000003 0.000000 -0.000000 0.000003 -0.000000 -10.232077 -9.688599 -14.122934 82.793367 -5.935264 1.896007 -46.621877 -29.668132 -0.358392 -5.413611 -0.000035 -0.000001 0.000000 0.000000 -0.000000 
0.826607 69.029823 17.235123 -8.279011 -37.120196 -2.216045 19.094120 0.867234 -3.609197 7.258912 -0.250458 -2.735154 8.857368 -0.807172 -3.723465 -4.009070 6.523383 3.347059 -4.277859 26.700439 -13.551318 0.000001 -0.000000 -0.000001 2.860976 -5.428472 -6.128833 -21.475950 8.971530 -42.042147 -0.000001 -48.307145 -0.000006 33.523053 10.364897 -15.388841 -0.610576 6.732837 -0.184861 16.821315 36.252629 -8.225878 5.907575 23.269556 2.219646 0.000003 0.000001 0.000000 -0.409727 0.763988 -26.218619 0.286797 1.970323 -16.562784 0.019706 0.521524 -4.325749 -0.000001 0.000000 -0.000002 3.865376 8.028010 -32.500523 0.297764 2.006748 -16.878523 0.089685 1.109898 -9.238020 -0.000002 0.000000 0.000002 1.739468 4.636019 -35.912093 0.725060 3.080494 -26.483572 0.307004 2.036936 -17.140389 0.000001 0.000000 -0.000003 3.287194 6.473042 -39.176046 0.662174 -1.124382 -25.609210 1.228295 3.930109 -34.700096 -0.000000 0.000000 -0.000002 4.595167 6.065379 7.875984 1.027425 -1.577485 51.336815 -0.000027 76.444153 0.000012 26.306970 2.533551 -29.424855 -1.205457 -6.330589 -0.134083 17.983333 -36.846060 9.086057 5.117029 -21.566626 -2.056659 -0.000001 0.000002 -0.000001 -0.473454 -0.574834 25.537174 0.282969 -1.967155 16.369909 0.018541 -0.508471 4.176102 -0.000001 0.000002 -0.000001 3.827260 -8.006979 32.403230 0.297647 -2.016418 16.792269 0.097400 -1.147954 9.467161 0.000002 -0.000000 0.000000 1.733425 -4.648375 35.976929 0.731088 -3.108550 26.463435 0.307240 -2.061154 17.166475 -0.000001 -0.000001 0.000000 0.699385 -3.352867 39.577220 0.661582 -2.965016 25.151606 1.236901 -3.963672 34.650267 0.000001 -0.000002 -0.000001 -56.805806 4.271099 -0.740355 81.162913 7.176316 0.429460 -15.948475 -1.780448 1.059197 -0.000007 0.000002 0.000001 0.000000 0.000002 -0.000000 -10.658098 -9.375447 -14.210945 83.515769 -5.832465 1.947867 -47.231967 -30.169338 -0.005789 -4.967511 0.000044 0.000000 0.000000 0.000000 -0.000002 
0.792745 68.569786 24.279537 -8.058170 -37.276430 -1.897073 19.131111 1.036034 -3.763706 7.267962 -0.213251 -2.762122 8.866157 -0.769785 -3.751153 -3.905961 6.356834 3.686918 -4.225324 26.539487 -13.799758 -0.000001 0.000000 0.000000 2.944581 -5.705064 -5.156342 -22.136988 9.513303 -42.602233 -0.000008 -48.306431 -0.000018 34.279541 10.696657 -14.722655 -0.597252 6.753986 -0.168880 16.816059 36.243767 -8.221586 5.921466 23.297519 2.211703 0.000000 -0.000001 -0.000000 -0.393132 0.806290 -26.301054 0.286688 1.969926 -16.559508 0.019705 0.521524 -4.325750 0.000001 -0.000000 -0.000002 3.876776 8.042622 -32.518496 0.297128 2.004666 -16.860431 0.086987 1.093310 -9.098834 -0.000003 0.000000 0.000002 1.745709 4.645020 -35.890622 0.725547 3.081507 -26.493131 0.307004 2.036936 -17.140392 -0.000000 0.000002 -0.000002 3.287865 6.473559 -39.180369 0.662028 -1.124696 -25.606217 1.228798 3.930823 -34.707517 -0.000001 0.000000 -0.000000 4.801947 6.521806 8.399373 -0.028789 -1.433924 49.610881 0.000181 76.231420 -0.000184 25.360176 1.307768 -28.624894 -1.244325 -6.286538 -0.106174 18.033533 -36.932657 9.111161 5.123111 -21.581709 -2.056063 -0.000002 0.000002 -0.000000 -0.452169 -0.611523 25.457935 0.283293 -1.968269 16.379572 0.018230 -0.504236 4.141279 -0.000003 0.000002 -0.000000 3.841391 -8.025640 32.422925 0.296406 -2.012298 16.756894 0.095366 -1.148389 9.467847 -0.000001 0.000000 -0.000000 1.731985 -4.645869 36.003775 0.731507 -3.109371 26.471194 0.309710 -2.067659 17.223488 0.000001 -0.000000 -0.000000 0.695216 -3.352597 39.700905 0.660179 -2.962037 25.124468 1.236900 -3.963668 34.650263 0.000002 -0.000001 0.000001 -57.557205 4.614413 -0.745217 81.677492 7.199352 0.328662 -15.958541 -1.863604 1.296487 -0.000007 -0.000001 0.000001 -0.000000 -0.000001 0.000000 -11.012315 -8.901293 -14.360053 84.446704 -5.588816 2.111111 -48.224458 -30.732289 0.915740 -4.141908 0.000002 0.000000 -0.000000 0.000000 0.000002 
0.745052 68.132538 31.343716 -7.868281 -37.250462 -1.679982 19.095553 1.142575 -3.963248 7.261049 -0.188570 -2.801575 8.858834 -0.744596 -3.791126 -3.728980 6.119940 4.210340 -4.028553 26.330294 -14.003912 0.000001 0.000000 -0.000000 3.085296 -6.127267 -3.677434 -22.516656 10.653715 -43.801402 0.000012 -48.306069 0.000018 35.078612 11.008289 -14.070230 -0.599890 6.750636 -0.156458 16.801850 36.219581 -8.209972 5.919520 23.293640 2.212798 0.000000 -0.000000 0.000000 -0.375871 0.845501 -26.340625 0.285206 1.964961 -16.516521 0.019708 0.521524 -4.325751 -0.000001 0.000000 -0.000000 3.884054 8.054037 -32.517151 0.296318 2.001979 -16.837243 0.085236 1.082266 -9.006122 0.000000 -0.000001 0.000002 1.753752 4.656400 -35.877775 0.726357 3.083075 -26.507749 0.307008 2.036936 -17.140389 -0.000000 -0.000000 0.000001 3.287775 6.472529 -39.192807 0.662607 -1.123488 -25.617478 1.228450 3.930344 -34.702354 -0.000001 -0.000000 -0.000000 5.048447 7.078376 9.047356 -0.829762 -1.522107 48.075338 0.000013 76.196942 -0.000007 24.650764 0.144289 -27.807630 -1.252666 -6.277489 -0.088705 18.073837 -37.002031 9.131436 5.116167 -21.564473 -2.056745 0.000000 0.000000 -0.000000 -0.431647 -0.647131 25.381145 0.283467 -1.968847 16.384432 0.018043 -0.501623 4.119814 0.000000 -0.000000 0.000001 3.843466 -8.030387 32.413400 0.295970 -2.010853 16.744427 0.094728 -1.148337 9.466577 0.000000 0.000000 -0.000002 1.731324 -4.645204 35.991074 0.731970 -3.110306 26.479778 0.309561 -2.067321 17.220437 0.000003 0.000000 0.000001 0.713821 -3.377559 39.766738 0.658453 -2.958341 25.090924 1.236903 -3.963668 34.650280 -0.000001 -0.000000 0.000001 -58.257033 4.868256 -0.913415 82.190562 7.280547 0.289125 -16.093662 -1.992941 1.671242 -0.000007 -0.000002 0.000001 -0.000000 -0.000002 0.000000 -11.080739 -8.546425 -14.412000 85.263833 -5.632244 2.326568 -49.500601 -31.445112 1.919133 -3.105601 0.000013 0.000005 -0.000000 0.000000 0.000000 
